<svg width="225" height="218" viewBox="0 0 225 218" fill="none" xmlns="http://www.w3.org/2000/svg">
<path d="M0 0H225V218H0V0Z" fill="black"/>
<path d="M107.985 40.0107C105.014 40.0547 102.008 40.2414 98.9742 40.6018C94.5149 41.4067 90.2079 42.7074 86.3577 44.386C81.5073 46.2143 76.4911 48.103 71.9566 48.3713C71.7272 48.3838 71.5028 48.4159 71.2809 48.4627C64.9416 49.8199 59.4739 53.0686 55.9545 57.5302L55.3891 58.2127C55.2725 58.3562 55.1635 58.5076 55.0733 58.6636C51.9713 64.0488 51.1455 70.2161 52.8187 76.2502C53.8941 79.1674 55.1764 81.9696 56.4172 84.684L56.7991 85.5066C59.698 91.1507 61.8037 97.0801 63.0633 103.13C63.1272 103.436 63.243 103.733 63.4084 104.007C64.6455 106.041 65.6134 108.182 66.3166 110.485C66.6286 111.387 66.9474 112.312 67.2933 113.245C67.391 113.511 67.5794 113.728 67.7486 113.952C67.7561 114.28 67.8079 114.609 67.9395 114.927L73.1609 127.322C73.5144 128.164 74.2833 128.837 75.2759 129.174C76.2723 129.511 77.3904 129.479 78.353 129.089C88.2117 125.114 111.303 115.807 143.162 132.337C143.771 132.652 144.463 132.812 145.159 132.812C145.667 132.812 146.172 132.731 146.65 132.556C147.785 132.148 148.609 131.303 148.846 130.296C149.616 127.042 149.891 121.818 149.639 117.566L149.874 116.633C150.178 115.401 150.479 114.152 150.799 112.916C153.777 107.419 159.044 102.105 164.143 96.9629C172.133 88.9039 180.396 80.5726 179.682 71.2594C179.648 70.8351 179.515 70.4182 179.285 70.0407C178.109 68.1188 176.79 66.2478 175.158 64.148L174.842 63.7276C174.463 63.2346 174.081 62.7482 173.69 62.2833C173.396 61.9339 173.098 61.6023 172.801 61.2779L172.485 60.9244C171.887 60.263 171.291 59.6045 170.679 58.9805C170.348 58.6498 170.021 58.335 169.584 57.9263C168.904 57.2773 168.227 56.6514 167.535 56.0555L166.625 55.2877C165.824 54.6294 165.02 54.0032 164.231 53.4291L163.651 53.0147C153.653 45.9386 143.385 44.0774 137.132 42.9418L133.644 42.2897C125.5 40.9934 116.897 39.8785 107.985 40.0107ZM111.716 46.2629C115.118 46.3459 118.577 46.6159 122.158 47.0246C109.908 62.1597 111.998 82.6263 114.851 100.479C111.114 100.239 107.286 100.171 103.447 100.327C101.273 89.6999 99.0012 76.3595 97.0648 65.8482C96.4858 61.1151 96.9881 56.3365 98.5409 51.7594C100.083 49.0045 100.227 47.4493 101.611 46.6163C104.97 46.2809 108.313 46.1798 111.716 46.2629ZM99.5764 46.9149C97.9107 48.0849 96.695 49.9313 95.8678 52.2713C94.4804 57.0293 94.01 61.9343 94.4725 66.8171C95.3899 78.2176 97.8856 89.4729 101.721 100.424C98.0961 100.636 94.4914 101.037 91.0209 101.679C88.3889 94.1509 88.8524 85.596 88.0027 77.6213C87.1416 68.5047 83.528 59.8681 78.9258 54.7575C78.6099 54.1335 78.6482 53.819 78.7422 53.5632C80.7425 53.0765 82.7137 52.4821 84.6539 51.8082C84.8833 51.9143 85.1154 52.0182 85.3222 52.1555L85.3956 52.0824C85.1926 51.9638 84.9784 51.8746 84.7641 51.7716C86.426 51.1913 88.0683 50.5944 89.655 49.9922C92.866 48.5945 96.2676 47.5763 99.5764 46.9149ZM85.3222 52.1555L85.2781 52.1982H85.3956C85.3731 52.1826 85.3485 52.1742 85.3222 52.1555ZM122.364 47.0429C125.504 47.4048 128.733 47.862 132.117 48.4018L135.642 49.0599C138.247 49.5341 141.471 50.1383 144.99 51.1866C138.899 60.2253 134.79 70.099 132.917 80.3513C131.571 87.7644 130.956 95.2456 130.964 102.734C126.384 101.695 121.142 100.927 115.622 100.534C115.404 96.5558 115.247 92.5098 115.446 90.2354C116.1 82.7006 116.859 59.4012 122.364 47.0429ZM145.952 51.4608C149.998 52.7494 154.405 54.67 158.767 57.7557L159.259 58.1152C159.951 58.6175 160.638 59.1561 161.33 59.724L162.123 60.3882C162.717 60.903 163.311 61.4477 164.025 62.131C164.307 62.3993 164.588 62.6669 164.862 62.9415C165.276 63.3627 165.679 63.8145 166.089 64.2638C159.14 66.504 147.605 87.7648 146.033 106.987C145.758 107.39 145.473 107.788 145.218 108.194C142.078 106.003 137.623 104.419 133.615 103.361C132.983 103.196 132.301 103.048 131.639 102.892C132.241 95.3542 133.092 87.4534 133.916 80.3086C136.585 68.5774 143.425 62.5618 145.952 51.4608ZM77.5672 53.8618C77.7514 54.2986 78.0393 54.7097 78.4191 55.0622C82.9762 60.1915 83.8597 68.5356 84.8448 77.6335C85.6833 85.655 86.6449 94.2564 90.2131 101.832C87.1713 102.434 84.2558 103.228 81.5034 104.221C79.255 97.472 78.1834 89.8634 76.4877 82.9838C74.1865 73.68 73.8853 65.3532 70.0839 62.8135C68.625 61.1443 64.7201 61.2919 66.5663 58.2249C67.0062 57.5697 67.5527 56.9717 68.0791 56.3602C69.568 55.6052 71.1453 54.9647 72.8598 54.5747C74.4315 54.4593 76.003 54.1987 77.5672 53.8618ZM66.8233 56.9879C66.4698 57.3872 66.1205 57.7937 65.8686 58.2493C65.188 59.2913 64.8925 60.4763 65.0241 61.6557C65.1406 62.2734 65.4432 62.8596 65.8906 63.3619C69.6469 65.8486 71.5947 73.7508 73.8733 83.0204C75.5916 90.006 77.5803 97.7351 80.6222 104.568C77.9902 105.576 75.5445 106.786 73.3298 108.212C72.5854 105.95 71.6149 103.731 70.3703 101.618C69.0017 95.2474 66.765 89.0101 63.7683 83.1788L63.4452 82.4719C62.2495 79.8542 61.0106 77.1498 60.0744 74.6475C58.8712 70.2764 59.4557 65.6418 61.7267 61.5765L62.182 61.0341C63.4341 59.446 65.011 58.083 66.8233 56.9879ZM166.434 64.6416C166.441 64.6479 166.441 64.6505 166.449 64.6599L166.801 65.0438C167.049 65.309 167.291 65.5796 167.528 65.8604C167.859 66.2535 168.181 66.6701 168.505 67.0913L168.843 67.53C170.162 69.2242 171.244 70.7484 172.206 72.271C172.289 78.9322 165.508 85.7729 158.341 93.0019C155.551 95.813 152.721 98.6726 150.16 101.643C155.947 89.3501 161.535 77.1029 166.434 64.6416ZM106.017 106.542C115.154 106.369 124.342 107.468 131.338 109.315C139.689 111.518 141.68 113.827 141.759 114.495C141.898 115.262 141.996 116.196 142.067 117.182L142.045 117.261C141.917 117.77 141.994 118.262 142.155 118.73C142.227 120.633 142.203 122.683 142.075 124.58C128.964 118.645 117.169 116.658 107.118 116.658C94.8383 116.658 85.1683 119.628 78.8891 121.984L75.79 114.629C82.6088 109.09 94.2696 106.766 106.017 106.542ZM86.8864 135.091L85.1827 136.042C85.9046 137.047 86.8386 137.935 87.9366 138.668C88.8014 139.118 89.811 139.337 90.83 139.296C91.3526 139.293 91.8683 139.235 92.3722 139.113L98.0563 137.407C98.4435 137.282 98.8544 137.218 99.268 137.218C99.8921 137.184 100.515 137.324 101.038 137.614C101.756 138.101 102.377 138.672 102.881 139.314L104.497 138.565V138.528C103.797 137.627 102.923 136.829 101.912 136.164C101.1 135.696 100.132 135.448 99.1431 135.463C98.8122 135.457 98.4783 135.509 98.1738 135.616L92.0197 137.322C91.6286 137.422 91.2178 137.465 90.808 137.456C90.0785 137.5 89.3496 137.333 88.7517 136.981C88.0035 136.441 87.3752 135.803 86.8864 135.091ZM150.021 138.492C149.434 138.535 148.895 138.775 148.523 139.156C148.075 139.471 147.79 139.912 147.722 140.399C147.681 140.505 147.681 140.622 147.722 140.728C149.046 141.889 150.737 142.706 152.606 143.093C154.474 143.57 156.345 144.03 158.172 144.458C160.022 144.966 161.593 146.006 162.608 147.389C162.627 147.451 162.627 147.515 162.608 147.578C162.608 147.868 161.768 148.342 160.148 149.022C159.328 149.415 158.095 150.28 156.042 151.575C154.76 152.446 153.389 153.217 151.937 153.878C150.704 154.334 149.621 155.037 148.794 155.92C148.775 155.935 148.758 155.95 148.743 155.969C148.089 156.593 148.167 157.546 148.919 158.089C149.31 158.401 149.835 158.571 150.38 158.565C150.768 158.558 151.147 158.477 151.489 158.327C154.136 156.942 156.68 155.419 159.105 153.775C161.564 152.084 164.132 150.498 166.786 149.022C168.264 148.273 168.982 147.49 168.982 146.688C168.933 146.151 168.58 145.665 168.035 145.378C164.87 143.019 161.135 141.268 157.085 140.216L154.104 139.144C153.1 138.766 152.022 138.545 150.924 138.492C150.623 138.457 150.318 138.457 150.021 138.492ZM68.1158 138.668C65.4913 140.303 62.6206 141.643 59.575 142.654C56.5557 143.687 53.6958 145.014 51.0563 146.609C49.7741 147.56 49.0263 148.912 49 150.338C49.1504 150.878 49.6133 151.326 50.2337 151.532C50.7865 151.685 51.3663 151.869 51.9228 152.056C57.5365 154.031 62.8046 156.159 67.7339 158.431C68.3882 158.824 69.0019 159.254 69.5772 159.722C69.9532 159.86 70.357 159.93 70.7669 159.93C71.7783 159.936 72.7645 159.647 73.5428 159.113C74.3362 158.645 74.7538 157.855 74.6297 157.053C74.6635 156.464 74.2375 155.919 73.5795 155.701L65.0828 152.599C62.2628 151.607 59.5122 150.468 56.8652 149.192C58.7226 147.274 61.2272 145.852 64.0547 145.103C66.8634 144.352 69.4555 143.127 71.6702 141.508C71.9898 141.255 72.1659 140.904 72.1622 140.539C72.1471 140.024 71.8543 139.541 71.3617 139.229C70.7752 138.855 70.0535 138.656 69.3128 138.668H68.1158ZM127.534 143.489C125.88 143.439 124.265 143.936 123.04 144.866C121.66 145.998 121.08 147.638 121.497 149.211C121.686 150.696 122.403 152.103 123.554 153.251C124.524 154.324 126.042 154.951 127.659 154.951C128.719 154.939 129.756 154.708 130.677 154.275C132.696 153.077 133.758 151.053 133.446 149.01C133.344 146.71 132.69 145.158 131.397 144.409C130.254 143.779 128.906 143.457 127.534 143.489ZM95.6695 143.604C94.0151 143.551 92.4009 144.043 91.1752 144.969C89.7877 146.099 89.1973 147.739 89.6109 149.314C89.8102 150.796 90.5279 152.2 91.6672 153.354C92.6335 154.428 94.1555 155.058 95.7723 155.055C96.8327 155.039 97.8657 154.809 98.7906 154.378C100.637 153.458 101.545 151.718 101.545 149.113C101.781 147.403 101.036 145.698 99.5323 144.512C98.3893 143.885 97.0382 143.57 95.6695 143.604ZM95.5888 147.267C96.7243 147.267 97.645 148.031 97.645 148.973C97.645 149.915 96.7243 150.679 95.5888 150.679C94.4532 150.679 93.5325 149.915 93.5325 148.973C93.5325 148.031 94.4532 147.267 95.5888 147.267ZM126.88 147.462C128.012 147.459 128.937 148.22 128.937 149.162C128.937 150.104 128.012 150.868 126.88 150.868C125.745 150.868 124.832 150.104 124.832 149.162C124.832 148.22 125.745 147.462 126.88 147.462ZM106.986 159.424C106.941 159.461 106.913 159.505 106.891 159.558V159.698C107.173 160.35 107.527 160.973 107.956 161.569C108.343 162.14 108.831 162.667 109.395 163.123C109.903 163.563 110.496 163.927 111.158 164.195C111.808 164.423 112.507 164.548 113.214 164.567L113.295 164.64C113.862 164.643 114.424 164.556 114.954 164.384C115.462 164.213 115.943 163.991 116.386 163.726C116.807 163.445 117.204 163.14 117.561 162.806C117.9 162.488 118.198 162.147 118.457 161.782C118.705 161.461 118.93 161.126 119.118 160.777C119.265 160.524 119.384 160.265 119.471 159.997V159.844C119.429 159.797 119.394 159.745 119.368 159.692C118.834 160.375 118.17 160.975 117.4 161.477C116.809 161.939 116.107 162.295 115.343 162.519C114.573 162.741 113.758 162.849 112.942 162.842C112.246 162.852 111.551 162.77 110.886 162.605C110.314 162.455 109.781 162.222 109.307 161.922C108.826 161.601 108.39 161.24 108.014 160.838C107.62 160.395 107.272 159.92 106.986 159.424ZM101.545 165.962C93.3327 166.321 88.5466 175.073 77.0898 166.998C73.969 182.502 96.8008 184.039 106.186 177.035C112.676 172.23 110.847 165.535 101.545 165.962ZM120.359 165.962C112.517 166.364 111.294 172.533 117.378 177.035C126.763 184.036 149.587 182.502 146.466 166.998C135.01 175.073 130.227 166.318 122.012 165.962C121.43 165.936 120.882 165.936 120.359 165.962Z" fill="white"/>
</svg>
