<svg width="338" height="338" viewBox="0 0 338 338" fill="none" xmlns="http://www.w3.org/2000/svg">
<circle cx="169" cy="169" r="168.5" fill="#9BD129" stroke="black"/>
<path d="M43.609 203H37.46V179.694H29.075V174.319H51.951V179.694H43.609V203ZM73.7529 203H53.4568V174.319H73.7529V179.694H59.5628V185.714H73.4518V191.089H59.5628V197.625H73.7529V203ZM90.0497 203.516C81.4067 203.516 74.7417 197.496 74.7417 188.681C74.7417 179.823 81.4067 173.846 90.0497 173.846C96.3277 173.846 99.9827 177.243 102.004 180.855L96.7577 183.435C95.5537 181.113 92.9737 179.264 90.0497 179.264C84.8037 179.264 81.0197 183.263 81.0197 188.681C81.0197 194.099 84.8037 198.098 90.0497 198.098C92.9737 198.098 95.5537 196.249 96.7577 193.927L102.004 196.464C99.9827 200.033 96.3277 203.516 90.0497 203.516ZM129.03 203H122.881V190.917H109.336V203H103.23V174.319H109.336V185.585H122.881V174.319H129.03V203ZM145.044 203H138.895V179.694H130.51V174.319H153.386V179.694H145.044V203ZM178.867 203H171.944L170.138 198.141H157.84L156.034 203H149.111L160.162 174.319H167.816L178.867 203ZM168.461 192.766L163.989 180.425L159.517 192.766H168.461ZM197.124 203H178.849V174.319H184.998V197.625H197.124V203ZM223.381 203H215.856L207.17 191.476L204.934 194.185V203H198.828V174.319H204.934V187.09L215.082 174.319H222.607L211.212 187.778L223.381 203ZM233.991 203.516C228.444 203.516 224.488 201.667 221.779 198.958L225.133 194.185C227.154 196.292 230.293 198.098 234.249 198.098C237.646 198.098 239.237 196.593 239.237 194.916C239.237 189.928 222.725 193.411 222.725 182.618C222.725 177.845 226.853 173.889 233.604 173.889C238.162 173.889 241.946 175.265 244.784 177.888L241.387 182.446C239.065 180.296 235.969 179.307 233.045 179.307C230.465 179.307 229.003 180.425 229.003 182.145C229.003 186.66 245.472 183.607 245.472 194.314C245.472 199.56 241.688 203.516 233.991 203.516ZM273.827 203H267.721V197.066H254.004V192.25L265.399 174.319H273.827V191.691H277.525V197.066H273.827V203ZM267.721 191.691V179.737L259.981 191.691H267.721ZM281.681 203.473C279.789 203.473 278.198 201.882 278.198 199.99C278.198 198.098 279.789 196.507 281.681 196.507C283.573 196.507 285.164 198.098 285.164 199.99C285.164 201.882 283.573 203.473 281.681 203.473ZM297.219 203.516C289.006 203.516 285.351 196.077 285.351 188.681C285.351 181.285 289.006 173.889 297.219 173.889C305.432 173.889 309.087 181.285 309.087 188.681C309.087 196.077 305.432 203.516 297.219 203.516ZM297.219 198.098C301.304 198.098 302.852 193.97 302.852 188.681C302.852 183.392 301.347 179.307 297.219 179.307C293.134 179.307 291.586 183.392 291.586 188.681C291.586 193.97 293.134 198.098 297.219 198.098Z" fill="#0D0D0D"/>
</svg>
